<svg  version="1.0"  id="Layer_1" xmlns="http://www.w3.org/2000/svg"   xmlns:xlink="http://www.w3.org/1999/xlink" x="0px" y="0px"  viewBox="-235.1 -325.1 612 792" style="enable-background:new -235.1 -325.1 612 792;" xml:space="preserve">
<path transform="translate(0.0,0.0)" style="fill:#ffffff;stroke-width:1;stroke:#000000;stroke-opacity:1" d="M 13.050983,-25.901258 13.050983,-25.901258 14.707018,-25.901258  Z" id="polygon0" />
<path transform="translate(0.0,0.0)" style="fill:#ffffff;stroke-width:1;stroke:#000000;stroke-opacity:1" d="M 14.707018,-25.901258 13.050983,-25.901258 14.707018,-25.901258  Z" id="polygon1" />
<path transform="translate(0.0,0.0)" style="fill:#ffffff;stroke-width:1;stroke:#000000;stroke-opacity:1" d="M 13.050983,72.684723 13.050983,72.684723 14.707018,72.684723  Z" id="polygon2" />
<path transform="translate(0.0,0.0)" style="fill:#ffffff;stroke-width:1;stroke:#000000;stroke-opacity:1" d="M 14.707018,72.684723 13.050983,72.684723 14.707018,72.684723  Z" id="polygon3" />
<path transform="translate(0.0,0.0)" style="fill:#ffffff;stroke-width:1;stroke:#000000;stroke-opacity:1" d="M 13.050983,72.684723 13.050983,104.37307 13.050983,72.684723  Z" id="polygon4" />
<path transform="translate(0.0,0.0)" style="fill:#ffffff;stroke-width:1;stroke:#000000;stroke-opacity:1" d="M 13.050983,72.684723 13.050983,104.37307 13.050983,104.37307  Z" id="polygon5" />
<path transform="translate(0.0,0.0)" style="fill:#ffffff;stroke-width:1;stroke:#000000;stroke-opacity:1" d="M 13.050983,-25.901258 13.050983,-57.58963 13.050983,-25.901258  Z" id="polygon6" />
<path transform="translate(0.0,0.0)" style="fill:#ffffff;stroke-width:1;stroke:#000000;stroke-opacity:1" d="M 13.050983,-25.901258 13.050983,-57.58963 13.050983,-57.58963  Z" id="polygon7" />
<path transform="translate(0.0,0.0)" style="fill:#ffffff;stroke-width:1;stroke:#000000;stroke-opacity:1" d="M 13.050983,-25.901258 14.707018,-25.901258 13.050983,-57.58963  Z" id="polygon8" />
<path transform="translate(0.0,0.0)" style="fill:#ffffff;stroke-width:1;stroke:#000000;stroke-opacity:1" d="M 13.050983,-57.58963 14.707018,-25.901258 14.707018,-60.23032  Z" id="polygon9" />
<path transform="translate(0.0,0.0)" style="fill:#ffffff;stroke-width:1;stroke:#000000;stroke-opacity:1" d="M 13.050983,-57.58963 14.707018,-60.23032 -90.174858,-60.23032  Z" id="polygon10" />
<path transform="translate(0.0,0.0)" style="fill:#ffffff;stroke-width:1;stroke:#000000;stroke-opacity:1" d="M 13.050983,-57.58963 -90.174858,-60.23032 -88.518829,-57.58963  Z" id="polygon11" />
<path transform="translate(0.0,0.0)" style="fill:#ffffff;stroke-width:1;stroke:#000000;stroke-opacity:1" d="M -88.518829,-57.58963 -90.174858,-60.23032 -90.174889,107.01373  Z" id="polygon12" />
<path transform="translate(0.0,0.0)" style="fill:#ffffff;stroke-width:1;stroke:#000000;stroke-opacity:1" d="M -88.518829,-57.58963 -90.174889,107.01373 -88.518837,104.37304  Z" id="polygon13" />
<path transform="translate(0.0,0.0)" style="fill:#ffffff;stroke-width:1;stroke:#000000;stroke-opacity:1" d="M -88.518837,104.37304 -90.174889,107.01373 14.707018,107.01379  Z" id="polygon14" />
<path transform="translate(0.0,0.0)" style="fill:#ffffff;stroke-width:1;stroke:#000000;stroke-opacity:1" d="M -88.518837,104.37304 14.707018,107.01379 13.050983,104.37307  Z" id="polygon15" />
<path transform="translate(0.0,0.0)" style="fill:#ffffff;stroke-width:1;stroke:#000000;stroke-opacity:1" d="M 13.050983,104.37307 14.707018,107.01379 14.707018,72.684723  Z" id="polygon16" />
<path transform="translate(0.0,0.0)" style="fill:#ffffff;stroke-width:1;stroke:#000000;stroke-opacity:1" d="M 13.050983,104.37307 14.707018,72.684723 13.050983,72.684723  Z" id="polygon17" />
<path transform="translate(0.0,0.0)" style="fill:#ffffff;stroke-width:1;stroke:#000000;stroke-opacity:1" d="M 14.707018,-25.901258 14.707018,-25.901258 14.707018,-60.23032  Z" id="polygon18" />
<path transform="translate(0.0,0.0)" style="fill:#ffffff;stroke-width:1;stroke:#000000;stroke-opacity:1" d="M 14.707018,-60.23032 14.707018,-25.901258 14.707018,-60.23032  Z" id="polygon19" />
<path transform="translate(0.0,0.0)" style="fill:#ffffff;stroke-width:1;stroke:#000000;stroke-opacity:1" d="M 14.707018,-60.23032 14.707018,-25.901258 14.707018,72.684723  Z" id="polygon20" />
<path transform="translate(0.0,0.0)" style="fill:#ffffff;stroke-width:1;stroke:#000000;stroke-opacity:1" d="M 14.707018,-60.23032 14.707018,72.684723 14.707018,107.01379  Z" id="polygon21" />
<path transform="translate(0.0,0.0)" style="fill:#ffffff;stroke-width:1;stroke:#000000;stroke-opacity:1" d="M 14.707018,107.01379 14.707018,72.684723 14.707018,107.01379  Z" id="polygon22" />
<path transform="translate(0.0,0.0)" style="fill:#ffffff;stroke-width:1;stroke:#000000;stroke-opacity:1" d="M 14.707018,107.01379 14.707018,72.684723 14.707018,72.684723  Z" id="polygon23" />
<path transform="translate(0.0,0.0)" style="fill:#ffffff;stroke-width:1;stroke:#000000;stroke-opacity:1" d="M -88.518837,104.37304 -88.518829,-57.58963 -88.518837,104.37304  Z" id="polygon24" />
<path transform="translate(0.0,0.0)" style="fill:#ffffff;stroke-width:1;stroke:#000000;stroke-opacity:1" d="M -88.518837,104.37304 -88.518829,-57.58963 -88.518829,-57.58963  Z" id="polygon25" />
<path transform="translate(0.0,0.0)" style="fill:#ffffff;stroke-width:1;stroke:#000000;stroke-opacity:1" d="M -88.518829,-57.58963 13.050983,-57.58963 -88.518829,-57.58963  Z" id="polygon26" />
<path transform="translate(0.0,0.0)" style="fill:#ffffff;stroke-width:1;stroke:#000000;stroke-opacity:1" d="M -88.518829,-57.58963 13.050983,-57.58963 13.050983,-57.58963  Z" id="polygon27" />
<path transform="translate(0.0,0.0)" style="fill:#ffffff;stroke-width:1;stroke:#000000;stroke-opacity:1" d="M 13.050983,104.37307 -88.518837,104.37304 13.050983,104.37307  Z" id="polygon28" />
<path transform="translate(0.0,0.0)" style="fill:#ffffff;stroke-width:1;stroke:#000000;stroke-opacity:1" d="M 13.050983,104.37307 -88.518837,104.37304 -88.518837,104.37304  Z" id="polygon29" />
<path transform="translate(0.0,0.0)" style="fill:#ffffff;stroke-width:1;stroke:#000000;stroke-opacity:1" d="M 13.050983,-57.58963 -88.518829,-57.58963 13.050983,-25.901258  Z" id="polygon30" />
<path transform="translate(0.0,0.0)" style="fill:#ffffff;stroke-width:1;stroke:#000000;stroke-opacity:1" d="M 13.050983,-25.901258 -88.518829,-57.58963 -88.518837,104.37304  Z" id="polygon31" />
<path transform="translate(0.0,0.0)" style="fill:#ffffff;stroke-width:1;stroke:#000000;stroke-opacity:1" d="M 13.050983,-25.901258 -88.518837,104.37304 13.050983,72.684723  Z" id="polygon32" />
<path transform="translate(0.0,0.0)" style="fill:#ffffff;stroke-width:1;stroke:#000000;stroke-opacity:1" d="M 13.050983,72.684723 -88.518837,104.37304 13.050983,104.37307  Z" id="polygon33" />
<path transform="translate(0.0,0.0)" style="fill:#ffffff;stroke-width:1;stroke:#000000;stroke-opacity:1" d="M 14.707018,72.684723 14.707018,-25.901258 13.050983,72.684723  Z" id="polygon34" />
<path transform="translate(0.0,0.0)" style="fill:#ffffff;stroke-width:1;stroke:#000000;stroke-opacity:1" d="M 13.050983,72.684723 14.707018,-25.901258 13.050983,-25.901258  Z" id="polygon35" />
<path transform="translate(0.0,0.0)" style="fill:#ffffff;stroke-width:1;stroke:#000000;stroke-opacity:1" d="M -90.174858,-60.23032 -90.174889,107.01373 -90.174858,-60.23032  Z" id="polygon36" />
<path transform="translate(0.0,0.0)" style="fill:#ffffff;stroke-width:1;stroke:#000000;stroke-opacity:1" d="M -90.174858,-60.23032 -90.174889,107.01373 -90.174889,107.01373  Z" id="polygon37" />
<path transform="translate(0.0,0.0)" style="fill:#ffffff;stroke-width:1;stroke:#000000;stroke-opacity:1" d="M 14.707018,-60.23032 -90.174858,-60.23032 14.707018,-60.23032  Z" id="polygon38" />
<path transform="translate(0.0,0.0)" style="fill:#ffffff;stroke-width:1;stroke:#000000;stroke-opacity:1" d="M 14.707018,-60.23032 -90.174858,-60.23032 -90.174858,-60.23032  Z" id="polygon39" />
<path transform="translate(0.0,0.0)" style="fill:#ffffff;stroke-width:1;stroke:#000000;stroke-opacity:1" d="M -90.174889,107.01373 14.707018,107.01379 -90.174889,107.01373  Z" id="polygon40" />
<path transform="translate(0.0,0.0)" style="fill:#ffffff;stroke-width:1;stroke:#000000;stroke-opacity:1" d="M -90.174889,107.01373 14.707018,107.01379 14.707018,107.01379  Z" id="polygon41" />
<path transform="translate(0.0,0.0)" style="fill:#ffffff;stroke-width:1;stroke:#000000;stroke-opacity:1" d="M -90.174889,107.01373 -90.174858,-60.23032 14.707018,107.01379  Z" id="polygon42" />
<path transform="translate(0.0,0.0)" style="fill:#ffffff;stroke-width:1;stroke:#000000;stroke-opacity:1" d="M 14.707018,107.01379 -90.174858,-60.23032 14.707018,-60.23032  Z" id="polygon43" />
<path transform="translate(0.0,0.0)" style="fill:#ffffff;stroke-width:1;stroke:#000000;stroke-opacity:1" d="M -122.66769,-64.963905 -234.35268,-64.940712 -217.53604,-64.14312 -122.68755,-64.162888  Z" id="polygon0" />
<path transform="translate(0.0,0.0)" style="fill:#ffffff;stroke-width:1;stroke:#000000;stroke-opacity:1" d="M -122.71374,111.27997 -122.73335,112.07307 -139.40237,112.07658  Z" id="polygon1" />
<path transform="translate(0.0,0.0)" style="fill:#ffffff;stroke-width:1;stroke:#000000;stroke-opacity:1" d="M -139.40237,112.07658 -234.41821,112.09638 -234.39857,111.30322 -122.71374,111.27997  Z" id="polygon2" />
<path transform="translate(0.0,0.0)" style="fill:#ffffff;stroke-width:1;stroke:#000000;stroke-opacity:1" d="M -122.66769,-64.963905 -122.68755,-64.162888 -122.69452,-37.635098  Z" id="polygon3" />
<path transform="translate(0.0,0.0)" style="fill:#ffffff;stroke-width:1;stroke:#000000;stroke-opacity:1" d="M -122.69452,-37.635098 -122.73335,112.07307 -122.71374,111.27997 -122.66769,-64.963905  Z" id="polygon4" />
<path transform="translate(0.0,0.0)" style="fill:#ffffff;stroke-width:1;stroke:#000000;stroke-opacity:1" d="M -124.43398,-62.095566 -124.45172,-61.379845 -139.25629,-61.376717  Z" id="polygon5" />
<path transform="translate(0.0,0.0)" style="fill:#ffffff;stroke-width:1;stroke:#000000;stroke-opacity:1" d="M -139.25629,-61.376717 -232.60974,-61.357273 -232.592,-62.072994 -124.43398,-62.095566  Z" id="polygon6" />
<path transform="translate(0.0,0.0)" style="fill:#ffffff;stroke-width:1;stroke:#000000;stroke-opacity:1" d="M -232.63652,108.60535 -232.65402,109.31338 -218.00905,109.31028  Z" id="polygon7" />
<path transform="translate(0.0,0.0)" style="fill:#ffffff;stroke-width:1;stroke:#000000;stroke-opacity:1" d="M -218.00905,109.31028 -124.49605,109.29087 -124.47855,108.58279 -232.63652,108.60535  Z" id="polygon8" />
<path transform="translate(0.0,0.0)" style="fill:#ffffff;stroke-width:1;stroke:#000000;stroke-opacity:1" d="M -124.47855,108.58279 -124.49605,109.29087 -124.49004,86.147255  Z" id="polygon9" />
<path transform="translate(0.0,0.0)" style="fill:#ffffff;stroke-width:1;stroke:#000000;stroke-opacity:1" d="M -124.49004,86.147255 -124.45172,-61.379845 -124.43398,-62.095566 -124.47855,108.58279  Z" id="polygon10" />
<path transform="translate(0.0,0.0)" style="fill:#ffffff;stroke-width:1;stroke:#000000;stroke-opacity:1" d="M -234.36423,-28.679056 -234.38184,-27.964846 -234.38063,-32.907547  Z" id="polygon11" />
<path transform="translate(0.0,0.0)" style="fill:#ffffff;stroke-width:1;stroke:#000000;stroke-opacity:1" d="M -234.38063,-32.907547 -234.37251,-64.139641 -234.35268,-64.940712 -234.36423,-28.679056  Z" id="polygon12" />
<path transform="translate(0.0,0.0)" style="fill:#ffffff;stroke-width:1;stroke:#000000;stroke-opacity:1" d="M -234.41821,112.09638 -234.41006,80.828751 -234.3913,75.212173 -234.39857,111.30322  Z" id="polygon13" />
<path transform="translate(0.0,0.0)" style="fill:#ffffff;stroke-width:1;stroke:#000000;stroke-opacity:1" d="M -234.39857,111.30322 -234.3913,75.212173 -234.36423,-28.679056  Z" id="polygon14" />
<path transform="translate(0.0,0.0)" style="fill:#ffffff;stroke-width:1;stroke:#000000;stroke-opacity:1" d="M -234.39857,111.30322 -234.36423,-28.679056 -234.35268,-64.940712  Z" id="polygon15" />
<path transform="translate(0.0,0.0)" style="fill:#ffffff;stroke-width:1;stroke:#000000;stroke-opacity:1" d="M -234.3913,75.212173 -234.41006,80.828751 -234.40883,75.921638  Z" id="polygon16" />
<path transform="translate(0.0,0.0)" style="fill:#ffffff;stroke-width:1;stroke:#000000;stroke-opacity:1" d="M -232.64651,80.451004 -232.65402,109.31338 -232.63652,108.60535 -232.62788,75.211739  Z" id="polygon17" />
<path transform="translate(0.0,0.0)" style="fill:#ffffff;stroke-width:1;stroke:#000000;stroke-opacity:1" d="M -232.62788,75.211739 -232.64542,75.92128 -232.64651,80.451004  Z" id="polygon18" />
<path transform="translate(0.0,0.0)" style="fill:#ffffff;stroke-width:1;stroke:#000000;stroke-opacity:1" d="M -232.592,-62.072994 -232.60974,-61.357273 -232.6109,-56.787941  Z" id="polygon19" />
<path transform="translate(0.0,0.0)" style="fill:#ffffff;stroke-width:1;stroke:#000000;stroke-opacity:1" d="M -232.6109,-56.787941 -232.61836,-27.965219 -232.60074,-28.679415 -232.592,-62.072994  Z" id="polygon20" />
<path transform="translate(0.0,0.0)" style="fill:#ffffff;stroke-width:1;stroke:#000000;stroke-opacity:1" d="M -232.63652,108.60535 -124.47855,108.58279 -232.62788,75.211739  Z" id="polygon21" />
<path transform="translate(0.0,0.0)" style="fill:#ffffff;stroke-width:1;stroke:#000000;stroke-opacity:1" d="M -232.62788,75.211739 -124.47855,108.58279 -124.43398,-62.095566  Z" id="polygon22" />
<path transform="translate(0.0,0.0)" style="fill:#ffffff;stroke-width:1;stroke:#000000;stroke-opacity:1" d="M -232.62788,75.211739 -124.43398,-62.095566 -232.60074,-28.679415  Z" id="polygon23" />
<path transform="translate(0.0,0.0)" style="fill:#ffffff;stroke-width:1;stroke:#000000;stroke-opacity:1" d="M -232.60074,-28.679415 -124.43398,-62.095566 -232.592,-62.072994  Z" id="polygon24" />
<path transform="translate(0.0,0.0)" style="fill:#ffffff;stroke-width:1;stroke:#000000;stroke-opacity:1" d="M -234.36423,-28.679056 -234.3913,75.212173 -232.60074,-28.679415  Z" id="polygon25" />
<path transform="translate(0.0,0.0)" style="fill:#ffffff;stroke-width:1;stroke:#000000;stroke-opacity:1" d="M -232.60074,-28.679415 -234.3913,75.212173 -232.62788,75.211739  Z" id="polygon26" />
<path transform="translate(0.0,0.0)" style="fill:#ffffff;stroke-width:1;stroke:#000000;stroke-opacity:1" d="M -234.36423,-28.679056 -234.14099,-27.96492 -234.38184,-27.964846  Z" id="polygon27" />
<path transform="translate(0.0,0.0)" style="fill:#ffffff;stroke-width:1;stroke:#000000;stroke-opacity:1" d="M -232.61836,-27.965219 -234.14099,-27.96492 -234.36423,-28.679056 -232.60074,-28.679415  Z" id="polygon28" />
<path transform="translate(0.0,0.0)" style="fill:#ffffff;stroke-width:1;stroke:#000000;stroke-opacity:1" d="M -234.40883,75.921638 -232.88472,75.921349 -232.62788,75.211739 -234.3913,75.212173  Z" id="polygon29" />
<path transform="translate(0.0,0.0)" style="fill:#ffffff;stroke-width:1;stroke:#000000;stroke-opacity:1" d="M -232.62788,75.211739 -232.88472,75.921349 -232.64542,75.92128  Z" id="polygon30" />
<path transform="translate(0.0,0.0)" style="fill:#ffffff;stroke-width:1;stroke:#000000;stroke-opacity:1" d="M -122.66769,-64.963905 -122.71374,111.27997 -234.35268,-64.940712  Z" id="polygon31" />
<path transform="translate(0.0,0.0)" style="fill:#ffffff;stroke-width:1;stroke:#000000;stroke-opacity:1" d="M -234.35268,-64.940712 -122.71374,111.27997 -234.39857,111.30322  Z" id="polygon32" />
<path transform="translate(0.0,0.0)" style="fill:#ffffff;stroke-width:1;stroke:#000000;stroke-opacity:1" d="M -234.35268,-64.940712 -234.37251,-64.139641 -217.53604,-64.14312  Z" id="polygon33" />
<path transform="translate(0.0,0.0)" style="fill:#e5d989;stroke-width:1;stroke:#000000;stroke-opacity:1" d="M -106.52316,80.139992 -106.34061,80.138031 -106.15806,80.13607 -105.9755,80.134109 -105.33614,80.129234 -104.69682,80.124382 -104.05748,80.119522 -103.41816,80.11467 -103.26814,80.113983 -103.11808,80.113327 -102.96804,80.11264 -102.818,80.111954 -102.66798,80.111282 -102.51795,80.110611 -102.36793,80.109924 -102.2179,80.109253 -102.06784,80.108582 -101.91781,80.107903 -101.76776,80.107224 -101.61776,80.106544 -101.46773,80.105873 -101.3177,80.105186 -101.16763,80.104515 -101.01761,80.103844 -101.60705,80.108315 -102.1965,80.112801 -102.7859,80.117279 -103.37531,80.121765 -103.54787,80.122444 -103.72038,80.123131 -103.89288,80.123833 -104.06541,80.124519 -104.2379,80.125206 -104.41047,80.125893 -104.58298,80.126579 -104.7555,80.127274 -104.93616,80.129265 -105.11683,80.131271 -105.29749,80.13327 -105.47816,80.135246 -105.65881,80.137253 -105.83949,80.139236 -106.02014,80.141243 -106.20081,80.143234 -106.77931,80.147636 -107.35784,80.152023 -107.93633,80.156425 -108.51488,80.16082 -108.7139,80.16172 -108.91295,80.162598 -109.11198,80.16349 -109.31104,80.164383 -109.51006,80.165276 -109.70911,80.166168 -109.90813,80.167061 -110.10721,80.167953 -110.26292,80.169746 -110.4186,80.171562 -110.57433,80.17337 -110.73001,80.175171 -110.88573,80.176979 -111.0414,80.178787 -111.19714,80.180588 -111.35286,80.182396 -111.95786,80.186989 -112.5629,80.191589 -113.16795,80.196182 -113.77298,80.20079 -113.62909,80.199226 -113.48515,80.197678 -113.34126,80.196114 -113.19736,80.19455 -113.05347,80.193001 -112.90958,80.191437 -112.76569,80.189888 -112.62176,80.188324 -112.47787,80.186775 -112.33397,80.185211 -112.19008,80.183662 -112.04619,80.182098 -111.90229,80.180542 -111.75836,80.178978 -111.61446,80.177429 -111.47057,80.175865 -110.83125,80.171013 -110.19191,80.166153 -109.55259,80.161285 -108.91322,80.156441 -108.72855,80.155602 -108.54388,80.15477 -108.35924,80.153946 -108.17455,80.153107 -107.98989,80.152283 -107.80524,80.151451 -107.62057,80.150627 -107.4359,80.149788 -107.25336,80.147827 -107.07082,80.145866 -106.88826,80.143906 -106.70571,80.141953  Z" id="polygon0" />
</svg>
